<?xml version="1.0" encoding="UTF-8" standalone="no"?>
<svg width="32px" height="33px" viewBox="0 0 32 33" version="1.1" xmlns="http://www.w3.org/2000/svg" xmlns:xlink="http://www.w3.org/1999/xlink" xmlns:sketch="http://www.bohemiancoding.com/sketch/ns">
    <!-- Generator: Sketch 3.3.3 (12072) - http://www.bohemiancoding.com/sketch -->
    <title>1442370361_square-twitter</title>
    <desc>Created with Sketch.</desc>
    <defs></defs>
    <g id="Page-1" stroke="none" stroke-width="1" fill="none" fill-rule="evenodd" sketch:type="MSPage">
        <g id="Home_Color-1" sketch:type="MSArtboardGroup" transform="translate(-1176.000000, -1969.000000)">
            <g id="1442370361_square-twitter" sketch:type="MSLayerGroup" transform="translate(1176.000000, 1969.500000)">
                <g id="Group" sketch:type="MSShapeGroup">
                    <path d="M30,32 L2,32 C0.896,32 0,31.104 0,30 L0,2 C0,0.896 0.896,0 2,0 L30,0 C31.104,0 32,0.896 32,2 L32,30 C32,31.104 31.104,32 30,32 Z" id="Shape" fill="#55ACEE"></path>
                    <path d="M25.987,9.894 C25.251,10.216 24.462,10.431 23.63,10.529 C24.48,10.031 25.13,9.24 25.436,8.298 C24.644,8.759 23.766,9.095 22.831,9.276 C22.083,8.491 21.017,8 19.838,8 C17.572,8 15.738,9.807 15.738,12.038 C15.738,12.352 15.774,12.663 15.842,12.96 C12.435,12.788 9.413,11.181 7.39,8.739 C7.038,9.336 6.834,10.029 6.834,10.771 C6.834,12.17 7.56,13.406 8.658,14.131 C7.987,14.109 7.354,13.928 6.802,13.625 C6.801,13.642 6.801,13.659 6.801,13.677 C6.801,15.632 8.215,17.266 10.091,17.637 C9.748,17.727 9.386,17.779 9.01,17.779 C8.746,17.779 8.49,17.755 8.24,17.707 C8.76,19.311 10.274,20.478 12.068,20.512 C10.67,21.594 8.9,22.24 6.979,22.24 C6.649,22.24 6.321,22.222 6,22.184 C7.814,23.329 9.971,23.997 12.287,23.997 C19.828,23.997 23.953,17.843 23.953,12.506 C23.953,12.333 23.948,12.156 23.941,11.985 C24.741,11.414 25.438,10.703 25.987,9.894 L25.987,9.894 Z" id="Shape" fill="#FFFFFF"></path>
                </g>
            </g>
        </g>
    </g>
</svg>